<svg id="Capa_1" enable-background="new 0 0 511.998 511.998" height="512" viewBox="0 0 511.998 511.998" width="512" xmlns="http://www.w3.org/2000/svg"><g><g><g><path d="m429.17 156.185h-19.05c-4.143 0-7.5-3.358-7.5-7.5s3.357-7.5 7.5-7.5h19.05c17.606 0 31.93-14.324 31.93-31.93v-62.32c0-17.606-14.323-31.93-31.93-31.93h-129.69c-17.612 0-31.94 14.324-31.94 31.93v62.32c0 17.606 14.328 31.93 31.94 31.93h80.64c4.143 0 7.5 3.358 7.5 7.5s-3.357 7.5-7.5 7.5h-80.64c-25.883 0-46.94-21.053-46.94-46.93v-62.32c0-25.877 21.058-46.93 46.94-46.93h129.69c25.877 0 46.93 21.053 46.93 46.93v62.32c0 25.877-21.053 46.93-46.93 46.93z"/></g><g><path d="m372.788 125.197c-4.143 0-7.5-3.358-7.5-7.5v-71.711h-9.431c-4.143 0-7.5-3.358-7.5-7.5s3.357-7.5 7.5-7.5h16.931c4.143 0 7.5 3.358 7.5 7.5v79.211c0 4.142-3.357 7.5-7.5 7.5z"/></g></g><g><g><path d="m320.85 334.09h-129.695c-25.88 0-46.935-21.055-46.935-46.935v-62.316c0-25.88 21.055-46.935 46.935-46.935h129.695c25.88 0 46.935 21.055 46.935 46.935v62.316c-.001 25.881-21.056 46.935-46.935 46.935zm-129.695-141.185c-17.608 0-31.935 14.326-31.935 31.935v62.316c0 17.609 14.326 31.935 31.935 31.935h129.695c17.608 0 31.935-14.326 31.935-31.935v-62.316c0-17.609-14.326-31.935-31.935-31.935z"/></g><g><path d="m252.304 303.893c-15.157 0-16.267-.371-17.282-.71-2.501-.833-4.37-2.724-5.128-5.186-1.307-4.25.535-6.662 5.458-13.108 4.029-5.275 11.528-15.095 24.093-33.046 3.743-5.349 6.156-10.14 7.178-14.249l.272-2.134c-.224-6.846-5.862-12.345-12.762-12.345-6.089 0-11.358 4.326-12.528 10.285-.798 4.064-4.737 6.71-8.805 5.914-4.064-.798-6.712-4.74-5.914-8.805 2.548-12.976 14.008-22.395 27.247-22.395 15.312 0 27.769 12.457 27.769 27.769-.038 1.14-.383 3.63-.585 4.757-1.405 6.063-4.63 12.726-9.583 19.803-9.464 13.522-16.104 22.506-20.571 28.431 7.545.005 17.315-.066 26.502-.182 4.18-.068 7.542 3.263 7.594 7.405.053 4.142-3.263 7.542-7.404 7.594-11.309.143-19.537.202-25.551.202z"/></g></g><g><path d="m400.216 481.935c-13.776 0-25.599-10.277-27.5-23.905-.179-1.275-.269-2.575-.269-3.863 0-4.142 3.357-7.5 7.5-7.5s7.5 3.358 7.5 7.5c0 .597.042 1.199.124 1.791.873 6.259 6.31 10.978 12.645 10.978 7.041 0 12.769-5.728 12.769-12.769s-5.728-12.769-12.769-12.769c-4.143 0-7.5-3.358-7.5-7.5s3.357-7.5 7.5-7.5c7.041 0 12.769-5.728 12.769-12.769s-5.728-12.769-12.769-12.769c-6.089 0-11.358 4.326-12.528 10.285-.798 4.064-4.731 6.712-8.805 5.914-4.064-.798-6.712-4.74-5.914-8.805 2.548-12.976 14.008-22.395 27.247-22.395 15.312 0 27.769 12.457 27.769 27.769 0 7.988-3.39 15.198-8.807 20.269 5.417 5.071 8.807 12.281 8.807 20.269-.001 15.312-12.458 27.769-27.769 27.769z"/></g><path d="m219.53 473.735h-122.39c-21.714 0-42.247-7.005-59.379-20.258-3.276-2.535-3.878-7.245-1.344-10.521 2.535-3.276 7.245-3.878 10.521-1.343 14.48 11.202 31.84 17.123 50.201 17.123h122.391c12.776 0 23.17-10.394 23.17-23.17 0-6.192-2.409-12.012-6.784-16.387-4.374-4.374-10.193-6.783-16.386-6.783h-111.65c-25.662 0-46.54-20.878-46.54-46.54v-203.59c0-28.057 21.947-51.014 49.966-52.262 2.054-.094 4.03.655 5.509 2.063 1.479 1.409 2.318 3.361 2.325 5.403l.051 14.73c.008 3.845 1.999 7.274 5.327 9.183 3.325 1.908 7.289 1.897 10.601-.03l78.126-45.363c3.312-1.928 5.285-5.375 5.273-9.216-.013-3.888-1.955-7.228-5.329-9.163l-78.352-44.971c-3.327-1.914-7.288-1.904-10.602.021-3.317 1.926-5.289 5.365-5.275 9.198l.03 14.301c.009 4.09-3.261 7.433-7.35 7.514-25.887.517-50.169 11.012-68.371 29.55-18.23 18.565-28.269 43.084-28.269 69.041v214.33c0 16.021 4.605 31.532 13.317 44.855 2.267 3.467 1.294 8.115-2.173 10.381-3.465 2.268-8.114 1.294-10.382-2.172-10.311-15.77-15.762-34.119-15.762-53.064v-214.33c0-29.912 11.565-58.164 32.566-79.551 19.231-19.586 44.36-31.377 71.409-33.655l-.016-7.159c-.033-9.251 4.73-17.559 12.742-22.211 8.01-4.651 17.583-4.673 25.608-.055l78.344 44.966c8.024 4.602 12.834 12.874 12.864 22.125.029 9.261-4.73 17.572-12.734 22.231l-78.128 45.365c-7.996 4.652-17.571 4.681-25.603.072-8.034-4.61-12.843-12.891-12.862-22.152l-.021-6.081c-16.106 4.192-27.83 18.786-27.83 36.105v203.59c0 17.391 14.148 31.54 31.54 31.54h111.65c10.199 0 19.785 3.969 26.993 11.177 7.207 7.208 11.177 16.794 11.177 26.993.001 21.047-17.122 38.17-38.169 38.17z"/><path d="m465.063 511.993h-129.694c-25.88 0-46.935-21.055-46.935-46.935v-62.316c0-25.88 21.055-46.935 46.935-46.935h129.694c25.88 0 46.935 21.055 46.935 46.935v62.316c0 25.88-21.055 46.935-46.935 46.935zm-129.694-141.185c-17.608 0-31.935 14.326-31.935 31.935v62.316c0 17.609 14.326 31.935 31.935 31.935h129.694c17.608 0 31.935-14.326 31.935-31.935v-62.316c0-17.609-14.326-31.935-31.935-31.935z"/></g></svg>